<svg width="67" height="67" viewBox="0 0 67 67" fill="none" xmlns="http://www.w3.org/2000/svg">
<circle cx="33.5" cy="33.5" r="33.5" fill="#2563EB"/>
<path d="M48 40.6612C48 43.6097 45.6097 46 42.6612 46H41.6052C38.7877 46 36.2463 44.1627 35.7742 41.3851C35.4104 39.2446 35.2285 37.0605 35.2285 34.8327C35.2285 30.9143 36.2207 27.8122 38.2053 25.5265C39.7543 23.7488 41.8524 22.6432 44.4996 22.2097C45.9945 21.9649 47.2318 23.228 47.2318 24.7429C47.2318 26.2577 45.8947 27.3419 44.5998 28.1279C43.1536 29.0057 42.4305 30.7835 42.4305 33.4612C42.4305 34.4891 43.2638 35.3224 44.2917 35.3224H45.2152C46.7532 35.3224 48 36.5692 48 38.1072V40.6612ZM31.7715 40.6612C31.7715 43.6097 29.3813 46 26.4327 46H25.3767C22.5592 46 20.0179 44.1627 19.5457 41.3851C19.1819 39.2446 19 37.0605 19 34.8327C19 30.9143 19.9923 27.8122 21.9768 25.5265C23.5259 23.7488 25.6239 22.6432 28.2711 22.2097C29.766 21.9649 31.0033 23.228 31.0033 24.7429C31.0033 26.2577 29.6663 27.3419 28.3713 28.1279C26.9251 29.0057 26.202 30.7835 26.202 33.4612C26.202 34.4891 27.0353 35.3224 28.0632 35.3224H28.9868C30.5247 35.3224 31.7715 36.5692 31.7715 38.1072V40.6612Z" fill="white"/>
</svg>
